<?xml version="1.0" encoding="utf-8"?>
<!-- Generator: Adobe Illustrator 21.0.0, SVG Export Plug-In . SVG Version: 6.00 Build 0)  -->
<svg version="1.1" xmlns="http://www.w3.org/2000/svg" xmlns:xlink="http://www.w3.org/1999/xlink" x="0px" y="0px"
	 viewBox="0 0 482.4 419.7" style="enable-background:new 0 0 482.4 419.7;" xml:space="preserve">
<style type="text/css">
	.st0{fill:#35495E;}
	.st1{fill:#3B97D3;}
</style>
<g id="Layer_2">
</g>
<g id="Layer_1">
	<g>
		<path class="st0" d="M0,333.3c0-1.2,1-2.4,2.4-2.4h11.5c1.2,0,2.4,1.1,2.4,2.4v70.1h31.9c1.4,0,2.4,1.1,2.4,2.4v10.2
			c0,1.2-1,2.4-2.4,2.4H2.4c-1.4,0-2.4-1.1-2.4-2.4V333.3z"/>
		<path class="st0" d="M74.5,415.2l38.9-84.1c0.4-0.8,1-1.4,2.1-1.4h1.2c1.2,0,1.8,0.6,2.1,1.4l38.5,84.1c0.8,1.6-0.2,3.2-2.1,3.2
			h-10.9c-1.9,0-2.8-0.8-3.6-2.5l-6.1-13.5H97.2L91.1,416c-0.5,1.2-1.6,2.5-3.6,2.5H76.6C74.7,418.5,73.7,416.8,74.5,415.2z
			 M128.5,388.6L116,361.1h-0.4l-12.2,27.5H128.5z"/>
		<path class="st0" d="M187.5,332c0-1.2,1.1-2.2,2.4-2.2h3.1l52,55.2h0.1v-51.6c0-1.2,1-2.4,2.4-2.4H259c1.2,0,2.4,1.1,2.4,2.4v84.1
			c0,1.2-1.1,2.2-2.4,2.2h-3l-52.2-57.4h-0.1v53.8c0,1.2-1,2.4-2.4,2.4h-11.4c-1.2,0-2.4-1.1-2.4-2.4V332z"/>
		<path class="st0" d="M341.5,329.7c11.2,0,22,4.4,30.5,11.6c1,1,1.1,2.5,0.1,3.5l-7.8,8.1c-1,1-2.1,1-3.2,0
			c-5.4-4.8-12-7.2-18.9-7.2c-15.6,0-28,13.4-28,29c0,15.5,12.4,28.6,28.1,28.6c7,0,12.4-2.1,14.9-3.1v-10.6h-10
			c-1.4,0-2.4-1-2.4-2.2v-9.9c0-1.4,1-2.4,2.4-2.4h24c1.2,0,2.2,1.1,2.2,2.4v32c0,1-0.5,1.6-1,2c0,0-12.9,8.1-31,8.1
			c-24.9,0-44.9-19.8-44.9-44.8S316.6,329.7,341.5,329.7z"/>
		<path class="st0" d="M399.2,415.2l38.9-84.1c0.4-0.8,1-1.4,2.1-1.4h1.2c1.2,0,1.8,0.6,2.1,1.4l38.5,84.1c0.8,1.6-0.2,3.2-2.1,3.2
			h-10.9c-1.9,0-2.8-0.8-3.6-2.5l-6.1-13.5H422l-6.1,13.5c-0.5,1.2-1.6,2.5-3.6,2.5h-10.9C399.5,418.5,398.5,416.8,399.2,415.2z
			 M453.2,388.6l-12.5-27.5h-0.4l-12.2,27.5H453.2z"/>
	</g>
	<g>
		<path class="st1" d="M180.9,148.4c0,26.6,28.8,48.2,64.3,48.2h32.2h32.2v16.1v16.1v16.1V261h-16.1l-16.1,0h-16.1h-16.1
			c-8.9,0-17.3-1.8-25-5.1c-7.7-3.3-14.6-8-20.4-13.8c-5.8-5.8-10.5-12.8-13.8-20.4c-3.3-7.7-5-16.2-5-25V148.4z"/>
		<path class="st0" d="M245.2,196.6L245.2,196.6l0-3.7v-64.3V64.3V0h-16.1H213H197h-16.1v64.3v64.3v20.1
			C181.1,175.2,209.8,196.6,245.2,196.6z"/>
	</g>
</g>
</svg>
