<?xml version="1.0" encoding="utf-8"?>
<!-- Generator: Adobe Illustrator 21.0.0, SVG Export Plug-In . SVG Version: 6.00 Build 0)  -->
<svg version="1.1" id="Layer_1" xmlns="http://www.w3.org/2000/svg" xmlns:xlink="http://www.w3.org/1999/xlink" x="0px" y="0px"
	 viewBox="0 0 118.7 90" style="enable-background:new 0 0 118.7 90;" xml:space="preserve">
<style type="text/css">
	.st0{fill:#35495E;}
	.st1{fill:#F7C856;}
</style>
<g>
	<path class="st0" d="M68.7,74.7h-5v-2.1h5V74.7z M59.4,74.7h-5v-2.1h5V74.7z M50.2,74.7h-5v-2.1h5V74.7z"/>
	<path class="st0" d="M103.3,66.2h-2.1v-5h2.1V66.2z M103.3,56.9h-2.1v-5h2.1V56.9z M103.3,47.6h-2.1v-5h2.1V47.6z M103.3,38.3h-2.1
		v-5h2.1V38.3z"/>
	<path class="st0" d="M51.9,17.5h-5v-2.1h5V17.5z M42.6,17.5l-5,0v-2.1l5,0V17.5z M33.3,17.5h-5v-2.1h5V17.5z"/>
	<path class="st0" d="M13.6,14.1H6.8V7.3h6.8V14.1z M8.9,11.9h2.5V9.4H8.9V11.9z"/>
	<path class="st0" d="M13.6,23.6H6.8v-6.8h6.8V23.6z M8.9,21.5h2.5V19H8.9V21.5z"/>
	<path class="st0" d="M13.6,33.2H6.8v-6.8h6.8V33.2z M8.9,31h2.5v-2.5H8.9V31z"/>
	<path class="st0" d="M13.6,42.7H6.8v-6.8h6.8V42.7z M8.9,40.6h2.5v-2.5H8.9V40.6z"/>
	<path class="st0" d="M13.6,52.3H6.8v-6.8h6.8V52.3z M8.9,50.1h2.5v-2.5H8.9V50.1z"/>
	<path class="st0" d="M35.6,33.8v8.2L20.4,26.7V0H0v59.5h20.4V29.7l13.7,13.7h-8.1v2.1h11.8V33.8H35.6z M16.1,55.2H4.3V4.3h11.8
		V55.2z"/>
	<path class="st0" d="M40.5,54.1v2.1h8.2L34.1,71.5H6.4V90h29.3V73l14.4-15.1v8h2.1V54.1H40.5z M31.4,85.7H10.7v-9.9h20.7V85.7z"/>
	<path class="st0" d="M79.7,71.5L64.5,56.3h8.1v-2.1H60.8v11.8H63v-8.2L78.2,73v17h29.3V71.5H79.7z M103.2,85.7H82.5v-9.9h20.7V85.7
		z"/>
	<path class="st0" d="M118.7,28V0H59.8v28h17.1L63,41.9v-8.1h-2.1v11.8h11.8v-2.1h-8.2L79.9,28H118.7z M64.1,4.3h50.4v19.5H64.1V4.3
		z"/>
	<rect x="8.9" y="9.4" class="st1" width="2.5" height="2.5"/>
	<rect x="8.9" y="19" class="st1" width="2.5" height="2.5"/>
	<rect x="8.9" y="28.5" class="st1" width="2.5" height="2.5"/>
	<rect x="8.9" y="38.1" class="st1" width="2.5" height="2.5"/>
	<rect x="8.9" y="47.6" class="st1" width="2.5" height="2.5"/>
	<rect x="64.1" y="4.3" class="st1" width="50.4" height="19.5"/>
	<rect x="82.5" y="75.8" class="st1" width="20.7" height="9.9"/>
	<rect x="10.7" y="75.8" class="st1" width="20.7" height="9.9"/>
</g>
</svg>
