<?xml version="1.0" encoding="utf-8"?>
<!-- Generator: Adobe Illustrator 21.0.0, SVG Export Plug-In . SVG Version: 6.00 Build 0)  -->
<svg version="1.1" id="Layer_1" xmlns="http://www.w3.org/2000/svg" xmlns:xlink="http://www.w3.org/1999/xlink" x="0px" y="0px"
	 viewBox="0 0 119.3 90" style="enable-background:new 0 0 119.3 90;" xml:space="preserve">
<style type="text/css">
	.st0{fill:#35495E;}
	.st1{fill:#F7C856;}
</style>
<g>
	<path class="st0" d="M59.6,60.7c-8.7,0-15.7-7.1-15.7-15.7c0-8.7,7.1-15.7,15.7-15.7S75.4,36.3,75.4,45
		C75.4,53.7,68.3,60.7,59.6,60.7z M59.6,31.5c-7.5,0-13.5,6.1-13.5,13.5c0,7.5,6.1,13.5,13.5,13.5S73.2,52.5,73.2,45
		C73.2,37.5,67.1,31.5,59.6,31.5z"/>
	<path class="st1" d="M55.7,46.1v-1.2V41V37h1h1h1h1V41v3.9v2.5V49h0C57.5,49,55.7,47.7,55.7,46.1z M55.7,49c0,0.5,0.1,1.1,0.3,1.5
		c0.2,0.5,0.5,0.9,0.8,1.3c0.4,0.4,0.8,0.6,1.3,0.8c0.5,0.2,1,0.3,1.5,0.3h1h1h1h1v-1v-1v-1v-1h-2h-2c-2.2,0-3.9-1.3-3.9-3V49z"/>
	<path class="st0" d="M64.7,54.1h-5c-0.7,0-1.3-0.1-2-0.4c-0.6-0.3-1.1-0.6-1.6-1.1c-0.5-0.5-0.8-1-1.1-1.6c-0.3-0.6-0.4-1.3-0.4-2
		l0-13.1h6.1v12h3.9V54.1z M56.8,49.5c0,0.2,0.1,0.5,0.2,0.7c0.1,0.3,0.3,0.6,0.6,0.9c0.3,0.3,0.6,0.5,0.9,0.6
		c0.3,0.1,0.7,0.2,1.1,0.2h2.8v-1.7h-2.8c0,0,0,0-0.1,0C58.6,50.1,57.6,49.9,56.8,49.5z M56.8,46.1c0,0.7,0.7,1.4,1.7,1.7l0-9.7
		h-1.7V46.1z"/>
	<g>
		<path class="st0" d="M4.8,40.2C2.1,40.2,0,42.4,0,45c0,2.6,2.1,4.8,4.8,4.8c2.2,0,4.1-1.6,4.6-3.7h18.1v-2.2H9.4
			C8.9,41.8,7,40.2,4.8,40.2z M4.8,47.6c-1.4,0-2.6-1.1-2.6-2.6c0-1.4,1.1-2.6,2.6-2.6c1.4,0,2.6,1.1,2.6,2.6
			C7.3,46.4,6.2,47.6,4.8,47.6z"/>
		<path class="st0" d="M6.2,80.7c-0.5-0.2-1-0.3-1.5-0.3c-2.6,0-4.8,2.1-4.8,4.8S2.1,90,4.8,90c2.6,0,4.8-2.1,4.8-4.8
			c0-1.3-0.5-2.5-1.4-3.4l9-15.7l10.3,0V64l-11.6,0L6.2,80.7z M4.8,87.8c-1.4,0-2.6-1.1-2.6-2.6c0-1.4,1.1-2.6,2.6-2.6
			c1.4,0,2.6,1.1,2.6,2.6C7.3,86.7,6.2,87.8,4.8,87.8z"/>
		<path class="st0" d="M6.1,60.6c-0.4-0.1-0.9-0.2-1.4-0.2c-2.6,0-4.8,2.1-4.8,4.8c0,2.6,2.1,4.8,4.8,4.8c2.6,0,4.8-2.1,4.8-4.8
			c0-1.4-0.6-2.6-1.5-3.4l3.2-5.5h16.2V54H9.9L6.1,60.6z M4.8,67.7c-1.4,0-2.6-1.1-2.6-2.6c0-1.4,1.1-2.6,2.6-2.6
			c1.4,0,2.6,1.1,2.6,2.6C7.3,66.5,6.2,67.7,4.8,67.7z"/>
		<path class="st0" d="M17.2,23.8l-9-15.7C9,7.3,9.5,6.1,9.5,4.8C9.5,2.1,7.4,0,4.8,0C2.1,0,0,2.1,0,4.8c0,2.6,2.1,4.8,4.8,4.8
			c0.5,0,1-0.1,1.5-0.3L15.9,26l11.6,0v-2.2L17.2,23.8z M2.2,4.8c0-1.4,1.1-2.6,2.6-2.6c1.4,0,2.6,1.1,2.6,2.6
			c0,1.4-1.1,2.6-2.6,2.6C3.3,7.3,2.2,6.2,2.2,4.8z"/>
		<path class="st0" d="M8,28.3c0.9-0.9,1.5-2.1,1.5-3.4c0-2.6-2.1-4.8-4.8-4.8c-2.6,0-4.8,2.1-4.8,4.8s2.1,4.8,4.8,4.8
			c0.5,0,0.9-0.1,1.4-0.2L9.9,36h17.5v-2.2H11.2L8,28.3z M2.2,24.9c0-1.4,1.1-2.6,2.6-2.6c1.4,0,2.6,1.1,2.6,2.6s-1.1,2.6-2.6,2.6
			C3.3,27.4,2.2,26.3,2.2,24.9z"/>
	</g>
	<g>
		<path class="st0" d="M114.5,80.5c-0.5,0-1,0.1-1.5,0.3L103.4,64l-11.6,0v2.2l10.3,0l9,15.7c-0.9,0.9-1.4,2.1-1.4,3.4
			c0,2.6,2.1,4.8,4.8,4.8c2.6,0,4.8-2.1,4.8-4.8C119.3,82.6,117.1,80.5,114.5,80.5z M114.5,87.8c-1.4,0-2.6-1.1-2.6-2.6
			c0-1.4,1.1-2.6,2.6-2.6c1.4,0,2.6,1.1,2.6,2.6C117.1,86.7,115.9,87.8,114.5,87.8z"/>
		<path class="st0" d="M114.5,60.4c-0.5,0-0.9,0.1-1.4,0.2l-3.8-6.6H91.8v2.2h16.2l3.2,5.5c-0.9,0.9-1.5,2.1-1.5,3.4
			c0,2.6,2.1,4.8,4.8,4.8c2.6,0,4.8-2.1,4.8-4.8C119.3,62.5,117.1,60.4,114.5,60.4z M114.5,67.7c-1.4,0-2.6-1.1-2.6-2.6
			c0-1.4,1.1-2.6,2.6-2.6c1.4,0,2.6,1.1,2.6,2.6C117.1,66.5,115.9,67.7,114.5,67.7z"/>
		<path class="st0" d="M114.5,20.1c-2.6,0-4.8,2.1-4.8,4.8c0,1.4,0.6,2.6,1.5,3.4l-3.2,5.5H91.8V36h17.5l3.8-6.6
			c0.4,0.1,0.9,0.2,1.4,0.2c2.6,0,4.8-2.1,4.8-4.8S117.1,20.1,114.5,20.1z M114.5,27.4c-1.4,0-2.6-1.1-2.6-2.6
			c0-1.4,1.1-2.6,2.6-2.6c1.4,0,2.6,1.1,2.6,2.6C117.1,26.3,115.9,27.4,114.5,27.4z"/>
		<path class="st0" d="M114.5,40.2c-2.2,0-4.1,1.6-4.6,3.7H91.8v2.2h18.1c0.5,2.1,2.4,3.7,4.6,3.7c2.6,0,4.8-2.1,4.8-4.8
			C119.3,42.4,117.1,40.2,114.5,40.2z M114.5,47.6c-1.4,0-2.6-1.1-2.6-2.6c0-1.4,1.1-2.6,2.6-2.6c1.4,0,2.6,1.1,2.6,2.6
			C117.1,46.4,115.9,47.6,114.5,47.6z"/>
		<path class="st0" d="M113,9.3c0.5,0.2,1,0.3,1.5,0.3c2.6,0,4.8-2.1,4.8-4.8c0-2.6-2.1-4.8-4.8-4.8c-2.6,0-4.8,2.1-4.8,4.8
			c0,1.3,0.5,2.5,1.4,3.4l-9,15.7l-10.3,0V26l11.6,0L113,9.3z M114.5,2.2c1.4,0,2.6,1.1,2.6,2.6c0,1.4-1.1,2.6-2.6,2.6
			c-1.4,0-2.6-1.1-2.6-2.6C112,3.3,113.1,2.2,114.5,2.2z"/>
	</g>
	<path class="st0" d="M81.6,17.2H37.7c-3.2,0-5.9,2.6-5.9,5.9V67c0,3.2,2.6,5.9,5.9,5.9h43.9c3.2,0,5.9-2.6,5.9-5.9V23
		C87.4,19.8,84.8,17.2,81.6,17.2z M81.6,68.4H37.7c-0.8,0-1.5-0.7-1.5-1.5V56.2h3.7V54h-3.7v-2.8h3.7v-2.2h-3.7v-2.8h3.7v-2.2h-3.7
		V23c0-0.8,0.7-1.5,1.5-1.5h43.9c0.8,0,1.5,0.7,1.5,1.5v10.8h-3.7V36H83v2.8h-3.7v2.2H83v2.8h-3.7v2.2H83V67
		C83,67.8,82.4,68.4,81.6,68.4z"/>
	<circle class="st1" cx="4.8" cy="85.2" r="2.6"/>
	<circle class="st1" cx="4.8" cy="24.9" r="2.6"/>
	<circle class="st1" cx="114.5" cy="4.8" r="2.6"/>
	<circle class="st1" cx="114.5" cy="65.1" r="2.6"/>
	<g>
		<path class="st1" d="M59.6,50.1c-1,0-2-0.3-2.7-0.7c0,0.2,0.1,0.5,0.2,0.7c0.1,0.3,0.3,0.6,0.6,0.9c0.3,0.3,0.6,0.5,0.9,0.6
			c0.3,0.1,0.7,0.2,1.1,0.2h2.8v-1.7H59.6C59.6,50.1,59.6,50.1,59.6,50.1z"/>
		<path class="st1" d="M58.5,47.8l0-9.7h-1.7v8C56.8,46.9,57.5,47.5,58.5,47.8z"/>
		<path class="st1" d="M59.6,31.5c-7.5,0-13.5,6.1-13.5,13.5c0,7.5,6.1,13.5,13.5,13.5S73.2,52.5,73.2,45
			C73.2,37.5,67.1,31.5,59.6,31.5z M64.7,54.1h-5c-0.7,0-1.3-0.1-2-0.4c-0.6-0.3-1.1-0.6-1.6-1.1c-0.5-0.5-0.8-1-1.1-1.6
			c-0.3-0.6-0.4-1.3-0.4-2l0-13.1h6.1v12h3.9V54.1z"/>
	</g>
</g>
</svg>
