<?xml version="1.0" encoding="utf-8"?>
<!-- Generator: Adobe Illustrator 21.0.0, SVG Export Plug-In . SVG Version: 6.00 Build 0)  -->
<svg version="1.1" id="Layer_1" xmlns="http://www.w3.org/2000/svg" xmlns:xlink="http://www.w3.org/1999/xlink" x="0px" y="0px"
	 viewBox="0 0 119.2 90" style="enable-background:new 0 0 119.2 90;" xml:space="preserve">
<style type="text/css">
	.st0{fill:#35495E;}
	.st1{fill:#F7C856;}
</style>
<g>
	<path class="st0" d="M97.2,48.4H39.1V21.9h58.1V48.4z M41.3,46.2H95V24.1H41.3V46.2z"/>
	<path class="st0" d="M97.2,68H69.4V51.3h27.8V68z M71.6,65.8H95V53.5H71.6V65.8z"/>
	<path class="st0" d="M66.9,68H39.1V51.3h27.8V68z M41.3,65.8h23.4V53.5H41.3V65.8z"/>
	<path class="st0" d="M28.9,28.9h-6.9V22h6.9V28.9z M24.1,26.7h2.6v-2.6h-2.6V26.7z"/>
	<path class="st0" d="M28.9,38.7h-6.9v-6.9h6.9V38.7z M24.1,36.5h2.6v-2.6h-2.6V36.5z"/>
	<path class="st0" d="M28.9,48.5h-6.9v-6.9h6.9V48.5z M24.1,46.3h2.6v-2.6h-2.6V46.3z"/>
	<path class="st0" d="M28.9,58.2h-6.9v-6.9h6.9V58.2z M24.1,56.1h2.6v-2.6h-2.6V56.1z"/>
	<path class="st0" d="M28.9,68h-6.9v-6.9h6.9V68z M24.1,65.8h2.6v-2.6h-2.6V65.8z"/>
	<path class="st0" d="M119.2,12.1V0h-12.1v2.2h8.4l-11.4,11.3h-89L3.7,2.3h8.3V0.1H0v12.1h2.2V3.8l11.3,11.3v59.8L2.2,86.2v-8.3H0
		v12.1h12.1v-2.2H3.7l11.4-11.4h89l11.4,11.4h-8.4V90h12.1V77.9H117v8.3l-11.3-11.4V15.1L117,3.8v8.3H119.2z M18.3,72V17.9h14.3V72
		H18.3z M101.2,72H34.7V17.9h66.5V72z"/>
	<rect x="41.3" y="24.1" class="st1" width="53.7" height="22.1"/>
	<rect x="71.6" y="53.5" class="st1" width="23.4" height="12.3"/>
	<rect x="41.3" y="53.5" class="st1" width="23.4" height="12.3"/>
	<rect x="24.1" y="24.2" class="st1" width="2.6" height="2.6"/>
	<rect x="24.1" y="33.9" class="st1" width="2.6" height="2.6"/>
	<rect x="24.1" y="43.7" class="st1" width="2.6" height="2.6"/>
	<rect x="24.1" y="53.5" class="st1" width="2.6" height="2.6"/>
	<rect x="24.1" y="63.3" class="st1" width="2.6" height="2.6"/>
</g>
</svg>
