<?xml version="1.0" encoding="utf-8"?>
<!-- Generator: Adobe Illustrator 21.0.0, SVG Export Plug-In . SVG Version: 6.00 Build 0)  -->
<svg version="1.1" id="Layer_1" xmlns="http://www.w3.org/2000/svg" xmlns:xlink="http://www.w3.org/1999/xlink" x="0px" y="0px"
	 viewBox="0 0 119.5 90.7" style="enable-background:new 0 0 119.5 90.7;" xml:space="preserve">
<style type="text/css">
	.st0{fill:#35495E;}
	.st1{fill:#F7C856;}
</style>
<g>
	<g>
		<path class="st0" d="M110.1,0h-9.4v76.3h9.4c2.8,0,5,2.3,5,5s-2.3,5-5,5H12.5V47.8l-4.3,4.3v38.6h102c5.2,0,9.4-4.2,9.4-9.4v-72
			C119.5,4.2,115.3,0,110.1,0z M115.2,73.4c-1.5-0.9-3.2-1.5-5-1.5h-5V4.3h5c2.8,0,5,2.3,5,5V73.4z"/>
		<polygon class="st0" points="96.4,7.2 53.1,7.2 48.7,11.5 96.4,11.5 		"/>
	</g>
	<path class="st0" d="M10.3,29.2V10.4h18.8L10.3,29.2z M12.5,12.6V24l11.4-11.4H12.5z"/>
	<path class="st0" d="M0,0v54.2L54.2,0H0z M4.3,4.3h6v3.2h2.2V4.3h6.3v3.2h2.2V4.3h6.3v3.2h2.2V4.3h6.3v3.2h2.2V4.3h5.8L4.3,43.7
		V4.3z"/>
	<path class="st0" d="M86.5,62.3V47.9H64.8V35.5c3.1-0.5,5.4-3.2,5.4-6.4c0-3.6-2.9-6.5-6.5-6.5s-6.5,2.9-6.5,6.5
		c0,3.2,2.3,5.9,5.4,6.4v12.4H41.2v14.4h-5.4v13h13v-13h-5.4V50.1h19.3v12.2h-5.3v13h13v-13h-5.5V50.1h19.5v12.2h-5.4v13h13v-13
		H86.5z M46.6,73.1h-8.6v-8.6h8.6V73.1z M68.2,73.1h-8.6v-8.6h8.6V73.1z M63.7,33.5c-2.4,0-4.3-1.9-4.3-4.3s1.9-4.3,4.3-4.3
		c2.4,0,4.3,1.9,4.3,4.3S66.1,33.5,63.7,33.5z M89.7,73.1h-8.6v-8.6h8.6V73.1z"/>
	<path class="st1" d="M4.3,4.3v39.4L43.7,4.3h-5.8v3.2h-2.2V4.3h-6.3v3.2h-2.2V4.3h-6.3v3.2h-2.2V4.3h-6.3v3.2h-2.2V4.3H4.3z
		 M29.1,10.4L10.3,29.2V10.4H29.1z"/>
	<circle class="st1" cx="63.7" cy="29.1" r="4.3"/>
	<rect x="38" y="64.5" class="st1" width="8.6" height="8.6"/>
	<rect x="59.6" y="64.5" class="st1" width="8.6" height="8.6"/>
	<rect x="81.1" y="64.5" class="st1" width="8.6" height="8.6"/>
</g>
</svg>
