<?xml version="1.0" encoding="utf-8"?>
<!-- Generator: Adobe Illustrator 21.0.0, SVG Export Plug-In . SVG Version: 6.00 Build 0)  -->
<svg version="1.1" id="Layer_1" xmlns="http://www.w3.org/2000/svg" xmlns:xlink="http://www.w3.org/1999/xlink" x="0px" y="0px"
	 viewBox="0 0 118.6 90" style="enable-background:new 0 0 118.6 90;" xml:space="preserve">
<style type="text/css">
	.st0{fill:#35495E;}
	.st1{fill:#F7C856;}
</style>
<g>
	<polygon class="st0" points="47.1,68.6 0,68.6 0,0 47.1,0 47.1,23.2 42.9,23.2 42.9,4.3 4.3,4.3 4.3,64.3 42.9,64.3 42.9,52.9 
		47.1,52.9 	"/>
	<path class="st0" d="M38.9,23.2H8.2v-15h30.7V23.2z M10.4,21.1h26.4V10.4H10.4V21.1z"/>
	<path class="st0" d="M38.9,60.4H8.2v-15h30.7V60.4z M10.4,58.2h26.4V47.5H10.4V58.2z"/>
	<path class="st0" d="M91.6,90L55,90c-4.1,0-7.5-3.4-7.5-7.5c0-4.1,3.3-7.5,7.4-7.5l17.4-1.2l-34-34c-2.9-2.9-2.9-7.7,0-10.6
		c2.9-2.9,7.7-2.9,10.6,0l17.7,17.7c0.6,0.6,1.4,0.9,2.3,0.9c0.9,0,1.7-0.3,2.3-0.9l11.4-11.4c2.4-2.4,5.6-3.8,9.1-3.8
		s6.7,1.3,9.1,3.8l7.6,7.6c0.4,0.4,10.4,10.5,10.4,19c0,2.7-1,4.9-2.8,6.7L96.8,87.8C95.4,89.2,93.6,90,91.6,90L91.6,90z M55,79.3
		c-1.8,0-3.2,1.4-3.2,3.2s1.4,3.2,3.2,3.2l36.5,0v0c0.9,0,1.7-0.3,2.3-0.9l18.9-18.9c1-1,1.5-2.2,1.5-3.7c0-5.6-6.6-13.4-9.1-16
		l-7.6-7.6c-1.6-1.6-3.8-2.5-6.1-2.5s-4.5,0.9-6.1,2.5L74.1,49.9c-1.4,1.4-3.3,2.2-5.3,2.2c-2,0-3.9-0.8-5.3-2.2L45.8,32.2
		c-1.3-1.3-3.3-1.3-4.5,0c-0.6,0.6-0.9,1.4-0.9,2.3c0,0.9,0.3,1.7,0.9,2.3l34,34c1.2,1.2,1.6,2.9,1,4.5c-0.6,1.6-2,2.7-3.7,2.8
		L55,79.3z"/>
	<polygon class="st0" points="34.6,41.8 8.2,41.8 8.2,26.8 34.6,26.8 34.6,28.9 10.4,28.9 10.4,39.6 34.6,39.6 	"/>
	<rect x="10.4" y="10.4" class="st1" width="26.4" height="10.7"/>
	<rect x="10.4" y="47.5" class="st1" width="26.4" height="10.7"/>
	<path class="st1" d="M37.9,27.9h-3.2v1.1H10.4v10.7h24.3v1.1h3.2v-1.3c-2.4-2.8-2.4-6.9,0-9.7V27.9z"/>
</g>
</svg>
