<?xml version="1.0" encoding="utf-8"?>
<!-- Generator: Adobe Illustrator 21.0.0, SVG Export Plug-In . SVG Version: 6.00 Build 0)  -->
<svg version="1.1" id="Layer_1" xmlns="http://www.w3.org/2000/svg" xmlns:xlink="http://www.w3.org/1999/xlink" x="0px" y="0px"
	 viewBox="0 0 119.3 90" style="enable-background:new 0 0 119.3 90;" xml:space="preserve">
<style type="text/css">
	.st0{fill:#F7C856;}
	.st1{fill:#35495E;}
</style>
<g>
	<path class="st0" d="M40.4,24.6c-4.8,0-8.8,3.9-8.8,8.8s3.9,8.8,8.8,8.8s8.8-3.9,8.8-8.8S45.3,24.6,40.4,24.6z"/>
	<path class="st0" d="M23.4,65.4h34v-8.5c0-4.8-3.9-8.8-8.8-8.8H32.2c-4.8,0-8.8,3.9-8.8,8.8V65.4z"/>
	<path class="st0" d="M61.8,65.4h34v-8.5c0-4.8-3.9-8.8-8.8-8.8H70.6c-4.8,0-8.8,3.9-8.8,8.8V65.4z"/>
	<path class="st0" d="M78.8,24.6c-4.8,0-8.8,3.9-8.8,8.8s3.9,8.8,8.8,8.8s8.8-3.9,8.8-8.8S83.7,24.6,78.8,24.6z"/>
	<path class="st1" d="M78.8,39.9c-0.9,0-1.8-0.2-2.6-0.5c-0.8-0.3-1.5-0.8-2.1-1.4c-0.6-0.6-1.1-1.3-1.4-2.1l2-0.9
		c0.2,0.5,0.5,1,0.9,1.4c0.4,0.4,0.9,0.7,1.4,0.9c1.1,0.5,2.3,0.5,3.4,0c0.5-0.2,1-0.5,1.4-0.9c0.4-0.4,0.7-0.9,0.9-1.4l2,0.9
		c-0.3,0.8-0.8,1.5-1.4,2.1s-1.3,1.1-2.1,1.4C80.6,39.7,79.7,39.9,78.8,39.9z"/>
	<path class="st1" d="M87.1,43.8h-0.2C90,41.4,92,37.6,92,33.3c0-7.3-5.9-13.2-13.2-13.2c-7.3,0-13.2,5.9-13.2,13.2
		c0,4.2,2,8,5.2,10.4h-0.2c-4.6,0-8.6,2.4-11,5.9c-2.4-3.6-6.4-5.9-11-5.9h-0.2c3.1-2.4,5.2-6.2,5.2-10.4c0-7.3-5.9-13.2-13.2-13.2
		s-13.2,5.9-13.2,13.2c0,4.2,2,8,5.2,10.4h-0.2c-7.3,0-13.2,5.9-13.2,13.2v12.9h38.4h4.4h38.4V56.9C100.2,49.7,94.3,43.8,87.1,43.8z
		 M78.8,24.6c4.8,0,8.8,3.9,8.8,8.8s-3.9,8.8-8.8,8.8s-8.8-3.9-8.8-8.8S74,24.6,78.8,24.6z M40.4,24.6c4.8,0,8.8,3.9,8.8,8.8
		s-3.9,8.8-8.8,8.8s-8.8-3.9-8.8-8.8S35.6,24.6,40.4,24.6z M57.4,65.4h-34v-8.5c0-4.8,3.9-8.8,8.8-8.8h16.5c4.8,0,8.8,3.9,8.8,8.8
		V65.4z M95.9,65.4h-34v-8.5c0-4.8,3.9-8.8,8.8-8.8h16.5c4.8,0,8.8,3.9,8.8,8.8V65.4z"/>
	<path class="st1" d="M40.4,39.9c-0.9,0-1.8-0.2-2.6-0.5c-0.8-0.3-1.5-0.8-2.1-1.4c-0.6-0.6-1.1-1.3-1.4-2.1l2-0.9
		c0.2,0.5,0.5,1,0.9,1.4c0.4,0.4,0.9,0.7,1.4,0.9c1.1,0.5,2.3,0.5,3.4,0c0.5-0.2,1-0.5,1.4-0.9c0.4-0.4,0.7-0.9,0.9-1.4l2,0.9
		c-0.3,0.8-0.8,1.5-1.4,2.1c-0.6,0.6-1.3,1.1-2.1,1.4C42.2,39.7,41.3,39.9,40.4,39.9z"/>
	<g>
		<path class="st1" d="M66.2,76.8H53V90h13.2v-5.5H74v-2.2h-7.8V76.8z M64,87.8h-8.8V79H64V87.8z"/>
		<rect x="91.5" y="5.5" class="st1" width="10.2" height="2.2"/>
		<path class="st1" d="M114.9,11.4l1.7-1.4c-2.3-2.9-5.8-4.6-9.4-4.6h-0.4v2.2h0.4C110.2,7.7,113,9,114.9,11.4z"/>
		<rect x="94.5" y="82.3" class="st1" width="10.2" height="2.2"/>
		<rect x="79.1" y="82.3" class="st1" width="10.2" height="2.2"/>
		<path class="st1" d="M119,15.1l-2.1,0.4c0.1,0.7,0.2,1.3,0.2,2v8h2.2v-8C119.3,16.7,119.2,15.9,119,15.1z"/>
		<rect x="117.1" y="46.1" class="st1" width="2.2" height="10.2"/>
		<rect x="117.1" y="30.7" class="st1" width="2.2" height="10.2"/>
		<path class="st1" d="M109.5,82l0.5,2.1c3.7-0.9,6.8-3.6,8.3-7.1l-2-0.9C115.1,79.1,112.6,81.3,109.5,82z"/>
		<rect x="117.1" y="61.4" class="st1" width="2.2" height="10.2"/>
		<polygon class="st1" points="82.4,11.3 78.7,7.7 86.3,7.7 86.3,5.5 78.7,5.5 82.4,1.9 80.8,0.3 74.5,6.6 80.8,12.8 		"/>
	</g>
	<g>
		<path class="st1" d="M59.6,0c-3.3,0-6,2.4-6.5,5.5h-7.9v2.2h7.9c0.5,3.1,3.2,5.5,6.5,5.5c3.6,0,6.6-3,6.6-6.6S63.3,0,59.6,0z
			 M59.6,11c-2.4,0-4.4-2-4.4-4.4c0-2.4,2-4.4,4.4-4.4c2.4,0,4.4,2,4.4,4.4C64,9,62.1,11,59.6,11z"/>
		<path class="st1" d="M9.7,8L9.2,5.8c-3.7,0.9-6.8,3.6-8.3,7.1l2,0.9C4.2,10.9,6.7,8.7,9.7,8z"/>
		<path class="st1" d="M2.2,64.4H0v8c0,0.8,0.1,1.6,0.2,2.4l2.1-0.4c-0.1-0.7-0.2-1.3-0.2-2V64.4z"/>
		<rect x="0" y="49.1" class="st1" width="2.2" height="10.2"/>
		<path class="st1" d="M4.3,78.6l-1.7,1.4c2.3,2.9,5.8,4.6,9.4,4.6h0.4v-2.2h-0.4C9.1,82.3,6.2,81,4.3,78.6z"/>
		<rect x="0" y="33.7" class="st1" width="2.2" height="10.2"/>
		<rect x="0" y="18.3" class="st1" width="2.2" height="10.2"/>
		<rect x="29.9" y="5.5" class="st1" width="10.2" height="2.2"/>
		<rect x="14.6" y="5.5" class="st1" width="10.2" height="2.2"/>
		<rect x="17.6" y="82.3" class="st1" width="10.2" height="2.2"/>
		<polygon class="st1" points="36.9,78.7 40.5,82.3 32.9,82.3 32.9,84.5 40.5,84.5 36.9,88.1 38.5,89.7 44.7,83.4 38.5,77.2 		"/>
	</g>
	<rect x="55.2" y="79" class="st0" width="8.8" height="8.8"/>
	<circle class="st0" cx="59.6" cy="6.6" r="4.4"/>
</g>
</svg>
