<?xml version="1.0" encoding="utf-8"?>
<!-- Generator: Adobe Illustrator 21.0.0, SVG Export Plug-In . SVG Version: 6.00 Build 0)  -->
<svg version="1.1" id="Layer_1" xmlns="http://www.w3.org/2000/svg" xmlns:xlink="http://www.w3.org/1999/xlink" x="0px" y="0px"
	 viewBox="0 0 118.6 90" style="enable-background:new 0 0 118.6 90;" xml:space="preserve">
<style type="text/css">
	.st0{fill:#35495E;}
	.st1{fill:#F7C856;}
</style>
<g>
	<path class="st0" d="M36.5,47.1H8.2V34.6h28.3V47.1z M10.4,45h24v-8.3h-24V45z"/>
	<polygon class="st0" points="56.8,31.8 8.2,31.8 8.2,8.2 67.5,8.2 67.5,12.9 65.4,12.9 65.4,10.4 10.4,10.4 10.4,29.6 56.8,29.6 	
		"/>
	<polygon class="st0" points="57.2,47.1 39.2,47.1 39.2,34.6 57.2,34.6 57.2,36.7 41.4,36.7 41.4,45 57.2,45 	"/>
	<path class="st0" d="M99.6,37.1H68.9V24.3h30.7V37.1z M71.1,35h26.4v-8.6H71.1V35z"/>
	<path class="st0" d="M111.8,63.9H99.6v-7.1h12.1V63.9z M101.8,61.8h7.9v-2.9h-7.9V61.8z"/>
	<path class="st0" d="M111.8,73.6H99.6v-7.1h12.1V73.6z M101.8,71.4h7.9v-2.9h-7.9V71.4z"/>
	<path class="st0" d="M111.8,83.2H99.6v-7.1h12.1V83.2z M101.8,81.1h7.9v-2.9h-7.9V81.1z"/>
	<polygon class="st0" points="88.6,53.2 68.9,53.2 68.9,40.4 99.6,40.4 99.6,45.7 97.5,45.7 97.5,42.5 71.1,42.5 71.1,51.1 
		88.6,51.1 	"/>
	<polygon class="st0" points="88.6,69.3 68.9,69.3 68.9,56.4 88.6,56.4 88.6,58.6 71.1,58.6 71.1,67.1 88.6,67.1 	"/>
	<path class="st0" d="M107.9,50V16.1H75.7V0H0v54.3h60.7v23.2h32.1V90h25.7V50H107.9z M60.7,50H4.3V4.3h67.1v11.8H60.7V50z M65,73.2
		V20.4h38.6V50H92.9v23.2H65z M114.3,85.7H97.1V54.3h17.1V85.7z"/>
	<polygon class="st1" points="65.4,12.9 65.4,10.4 10.4,10.4 10.4,29.6 56.8,29.6 56.8,30.7 60.7,30.7 60.7,16.1 66.4,16.1 
		66.4,12.9 	"/>
	<rect x="10.4" y="36.7" class="st1" width="24" height="8.3"/>
	<polygon class="st1" points="57.2,35.6 57.2,36.7 41.4,36.7 41.4,45 57.2,45 57.2,46.1 60.7,46.1 60.7,35.6 	"/>
	<rect x="71.1" y="26.4" class="st1" width="26.4" height="8.6"/>
	<polygon class="st1" points="97.5,45.7 97.5,42.5 71.1,42.5 71.1,51.1 88.6,51.1 88.6,52.1 92.9,52.1 92.9,50 98.6,50 98.6,45.7 	
		"/>
	<polygon class="st1" points="88.6,57.5 88.6,58.6 71.1,58.6 71.1,67.1 88.6,67.1 88.6,68.2 92.9,68.2 92.9,57.5 	"/>
	<rect x="101.8" y="58.9" class="st1" width="7.9" height="2.9"/>
	<rect x="101.8" y="68.6" class="st1" width="7.9" height="2.9"/>
	<rect x="101.8" y="78.2" class="st1" width="7.9" height="2.9"/>
</g>
</svg>
